<mxfile host="app.diagrams.net" modified="2020-11-21T12:38:13.155Z" agent="5.0 (Windows)" etag="iHUo4LTo1NEytnqp6HCx" version="13.10.0" type="github">
  <diagram id="Pme9fIOPrRiLOFCRXLsO" name="Page-1">
    <mxGraphModel dx="1865" dy="587" grid="1" gridSize="10" guides="1" tooltips="1" connect="1" arrows="1" fold="1" page="1" pageScale="1" pageWidth="827" pageHeight="1169" math="0" shadow="0">
      <root>
        <mxCell id="0" />
        <mxCell id="1" parent="0" />
        <mxCell id="bKF1onNrk28GbELkqHRm-1" value="新冠疫情死亡情况" style="rounded=0;whiteSpace=wrap;html=1;" vertex="1" parent="1">
          <mxGeometry x="374" y="130" width="80" height="40" as="geometry" />
        </mxCell>
        <mxCell id="bKF1onNrk28GbELkqHRm-8" style="edgeStyle=orthogonalEdgeStyle;rounded=0;orthogonalLoop=1;jettySize=auto;html=1;" edge="1" parent="1" source="bKF1onNrk28GbELkqHRm-3" target="bKF1onNrk28GbELkqHRm-1">
          <mxGeometry relative="1" as="geometry" />
        </mxCell>
        <mxCell id="bKF1onNrk28GbELkqHRm-3" value="国家民主程度" style="rounded=0;whiteSpace=wrap;html=1;" vertex="1" parent="1">
          <mxGeometry x="210" y="130" width="80" height="40" as="geometry" />
        </mxCell>
        <mxCell id="bKF1onNrk28GbELkqHRm-11" style="edgeStyle=orthogonalEdgeStyle;rounded=0;orthogonalLoop=1;jettySize=auto;html=1;" edge="1" parent="1" source="bKF1onNrk28GbELkqHRm-4" target="bKF1onNrk28GbELkqHRm-1">
          <mxGeometry relative="1" as="geometry" />
        </mxCell>
        <mxCell id="bKF1onNrk28GbELkqHRm-4" value="国家医疗水平" style="rounded=0;whiteSpace=wrap;html=1;" vertex="1" parent="1">
          <mxGeometry x="560" y="130" width="80" height="40" as="geometry" />
        </mxCell>
        <mxCell id="bKF1onNrk28GbELkqHRm-33" style="edgeStyle=none;rounded=0;orthogonalLoop=1;jettySize=auto;html=1;endArrow=classic;endFill=1;" edge="1" parent="1" source="bKF1onNrk28GbELkqHRm-7" target="bKF1onNrk28GbELkqHRm-1">
          <mxGeometry relative="1" as="geometry" />
        </mxCell>
        <mxCell id="bKF1onNrk28GbELkqHRm-7" value="国家检测能力" style="rounded=0;whiteSpace=wrap;html=1;" vertex="1" parent="1">
          <mxGeometry x="374" y="230" width="80" height="40" as="geometry" />
        </mxCell>
        <mxCell id="bKF1onNrk28GbELkqHRm-13" style="edgeStyle=orthogonalEdgeStyle;rounded=0;orthogonalLoop=1;jettySize=auto;html=1;" edge="1" parent="1" source="bKF1onNrk28GbELkqHRm-12" target="bKF1onNrk28GbELkqHRm-1">
          <mxGeometry relative="1" as="geometry" />
        </mxCell>
        <mxCell id="bKF1onNrk28GbELkqHRm-12" value="国家经济发展程度" style="rounded=0;whiteSpace=wrap;html=1;" vertex="1" parent="1">
          <mxGeometry x="374" y="30" width="80" height="40" as="geometry" />
        </mxCell>
        <mxCell id="bKF1onNrk28GbELkqHRm-21" style="rounded=0;orthogonalLoop=1;jettySize=auto;html=1;endArrow=none;endFill=0;" edge="1" parent="1" source="bKF1onNrk28GbELkqHRm-14" target="bKF1onNrk28GbELkqHRm-16">
          <mxGeometry relative="1" as="geometry" />
        </mxCell>
        <mxCell id="bKF1onNrk28GbELkqHRm-22" style="rounded=0;orthogonalLoop=1;jettySize=auto;html=1;endArrow=none;endFill=0;" edge="1" parent="1" source="bKF1onNrk28GbELkqHRm-14" target="bKF1onNrk28GbELkqHRm-18">
          <mxGeometry relative="1" as="geometry" />
        </mxCell>
        <mxCell id="bKF1onNrk28GbELkqHRm-14" value="Democracy" style="rounded=0;whiteSpace=wrap;html=1;" vertex="1" parent="1">
          <mxGeometry x="770" y="280" width="80" height="40" as="geometry" />
        </mxCell>
        <mxCell id="bKF1onNrk28GbELkqHRm-16" value="country" style="ellipse;whiteSpace=wrap;html=1;" vertex="1" parent="1">
          <mxGeometry x="830" y="360" width="110" height="40" as="geometry" />
        </mxCell>
        <mxCell id="bKF1onNrk28GbELkqHRm-18" value="democracy_index" style="ellipse;whiteSpace=wrap;html=1;" vertex="1" parent="1">
          <mxGeometry x="680" y="360" width="110" height="40" as="geometry" />
        </mxCell>
        <mxCell id="bKF1onNrk28GbELkqHRm-26" style="edgeStyle=none;rounded=0;orthogonalLoop=1;jettySize=auto;html=1;endArrow=none;endFill=0;" edge="1" parent="1" source="bKF1onNrk28GbELkqHRm-23" target="bKF1onNrk28GbELkqHRm-25">
          <mxGeometry relative="1" as="geometry" />
        </mxCell>
        <mxCell id="bKF1onNrk28GbELkqHRm-27" style="edgeStyle=none;rounded=0;orthogonalLoop=1;jettySize=auto;html=1;endArrow=none;endFill=0;" edge="1" parent="1" source="bKF1onNrk28GbELkqHRm-23" target="bKF1onNrk28GbELkqHRm-24">
          <mxGeometry relative="1" as="geometry" />
        </mxCell>
        <mxCell id="bKF1onNrk28GbELkqHRm-23" value="Tests_ability" style="rounded=0;whiteSpace=wrap;html=1;" vertex="1" parent="1">
          <mxGeometry x="30" y="280" width="80" height="40" as="geometry" />
        </mxCell>
        <mxCell id="bKF1onNrk28GbELkqHRm-24" value="country" style="ellipse;whiteSpace=wrap;html=1;" vertex="1" parent="1">
          <mxGeometry x="94" y="360" width="76" height="40" as="geometry" />
        </mxCell>
        <mxCell id="bKF1onNrk28GbELkqHRm-25" value="tests_number" style="ellipse;whiteSpace=wrap;html=1;" vertex="1" parent="1">
          <mxGeometry x="-20" y="360" width="80" height="40" as="geometry" />
        </mxCell>
        <mxCell id="bKF1onNrk28GbELkqHRm-31" style="edgeStyle=none;rounded=0;orthogonalLoop=1;jettySize=auto;html=1;endArrow=none;endFill=0;" edge="1" parent="1" source="bKF1onNrk28GbELkqHRm-28" target="bKF1onNrk28GbELkqHRm-30">
          <mxGeometry relative="1" as="geometry" />
        </mxCell>
        <mxCell id="bKF1onNrk28GbELkqHRm-32" style="edgeStyle=none;rounded=0;orthogonalLoop=1;jettySize=auto;html=1;endArrow=none;endFill=0;" edge="1" parent="1" source="bKF1onNrk28GbELkqHRm-28" target="bKF1onNrk28GbELkqHRm-29">
          <mxGeometry relative="1" as="geometry" />
        </mxCell>
        <mxCell id="bKF1onNrk28GbELkqHRm-28" value="Medical_level" style="rounded=0;whiteSpace=wrap;html=1;" vertex="1" parent="1">
          <mxGeometry x="280" y="280" width="80" height="40" as="geometry" />
        </mxCell>
        <mxCell id="bKF1onNrk28GbELkqHRm-29" value="country" style="ellipse;whiteSpace=wrap;html=1;" vertex="1" parent="1">
          <mxGeometry x="340" y="360" width="70" height="40" as="geometry" />
        </mxCell>
        <mxCell id="bKF1onNrk28GbELkqHRm-30" value="HAQ" style="ellipse;whiteSpace=wrap;html=1;" vertex="1" parent="1">
          <mxGeometry x="240" y="360" width="70" height="40" as="geometry" />
        </mxCell>
        <mxCell id="bKF1onNrk28GbELkqHRm-38" style="edgeStyle=none;rounded=0;orthogonalLoop=1;jettySize=auto;html=1;endArrow=none;endFill=0;" edge="1" parent="1" source="bKF1onNrk28GbELkqHRm-34" target="bKF1onNrk28GbELkqHRm-36">
          <mxGeometry relative="1" as="geometry" />
        </mxCell>
        <mxCell id="bKF1onNrk28GbELkqHRm-34" value="Economic_level" style="rounded=0;whiteSpace=wrap;html=1;" vertex="1" parent="1">
          <mxGeometry x="494" y="280" width="90" height="40" as="geometry" />
        </mxCell>
        <mxCell id="bKF1onNrk28GbELkqHRm-37" style="edgeStyle=none;rounded=0;orthogonalLoop=1;jettySize=auto;html=1;endArrow=none;endFill=0;" edge="1" parent="1" source="bKF1onNrk28GbELkqHRm-35" target="bKF1onNrk28GbELkqHRm-34">
          <mxGeometry relative="1" as="geometry" />
        </mxCell>
        <mxCell id="bKF1onNrk28GbELkqHRm-35" value="GDP" style="ellipse;whiteSpace=wrap;html=1;" vertex="1" parent="1">
          <mxGeometry x="454" y="355" width="70" height="40" as="geometry" />
        </mxCell>
        <mxCell id="bKF1onNrk28GbELkqHRm-36" value="country" style="ellipse;whiteSpace=wrap;html=1;" vertex="1" parent="1">
          <mxGeometry x="564" y="355" width="70" height="40" as="geometry" />
        </mxCell>
      </root>
    </mxGraphModel>
  </diagram>
</mxfile>
